<svg xmlns:dc="http://purl.org/dc/elements/1.1/" xmlns:cc="http://creativecommons.org/ns#" xmlns:rdf="http://www.w3.org/1999/02/22-rdf-syntax-ns#" xmlns:svg="http://www.w3.org/2000/svg" xmlns="http://www.w3.org/2000/svg" viewBox="0 0 280 280" fill="none"><metadata><rdf:RDF><cc:Work><dc:format>image/svg+xml</dc:format><dc:type rdf:resource="http://purl.org/dc/dcmitype/StillImage"/><dc:title>Avataaars</dc:title><dc:creator><cc:Agent><dc:title>Pablo Stanley</dc:title></cc:Agent></dc:creator><dc:source>https://avataaars.com/</dc:source><cc:license rdf:resource="https://avataaars.com/"/><dc:contributor><cc:Agent><dc:title>Florian Körner</dc:title></cc:Agent></dc:contributor></cc:Work></rdf:RDF></metadata><mask id="avatarsRadiusMask"><rect width="280" height="280" rx="0" ry="0" x="0" y="0" fill="#fff"/></mask><g mask="url(#avatarsRadiusMask)"><g transform="translate(40, 36)"><path d="M100 0C69.072 0 44 25.072 44 56v6.166c-5.675.952-10 5.888-10 11.834v14c0 6.052 4.48 11.058 10.305 11.881 2.067 19.806 14.458 36.541 31.695 44.73V163h-4c-39.764 0-72 32.236-72 72v9h200v-9c0-39.764-32.236-72-72-72h-4v-18.389c17.237-8.189 29.628-24.924 31.695-44.73C161.52 99.058 166 94.052 166 88V74c0-5.946-4.325-10.882-10-11.834V56c0-30.928-25.072-56-56-56z" fill="#AE5D29"/><path d="M76 144.611v8A55.79 55.79 0 00100 158a55.789 55.789 0 0024-5.389v-8A55.789 55.789 0 01100 150a55.79 55.79 0 01-24-5.389z" fill="#000" fill-opacity=".1"/></g><g transform="translate(8, 170)"><path d="M108 14.694C92.484 18.38 80.895 25.529 77.228 34.142 50.72 44.765 32 70.696 32 101v9h200v-9.001c0-30.303-18.721-56.234-45.228-66.858-3.667-8.613-15.256-15.761-30.772-19.447V32c0 13.255-10.745 24-24 24s-24-10.745-24-24V14.694z" fill="#FFFFFF"/><path d="M102 63.337a67.11 67.11 0 01-7-2.817V110h7V63.337zm60 0a67.039 67.039 0 007-2.817V98.5a3.5 3.5 0 11-7 0V63.337z" fill="#F4F4F4"/><path d="M187.62 34.488a71.788 71.788 0 0110.832 5.628C197.107 55.615 167.87 68 132 68c30.928 0 56-13.431 56-30 0-1.188-.129-2.36-.38-3.512zm-111.24 0A16.477 16.477 0 0076 38c0 16.569 25.072 30 56 30-35.87 0-65.107-12.385-66.452-27.884a71.783 71.783 0 0110.832-5.628z" fill="#000" fill-opacity=".16"/></g><g transform="translate(86, 134)"><rect x="42" y="18" width="24" height="6" rx="3" fill="#000" fill-opacity=".7"/></g><g transform="translate(112, 122)"><path fill-rule="evenodd" clip-rule="evenodd" d="M16 8c0 4.418 5.373 8 12 8s12-3.582 12-8" fill="#000" fill-opacity=".16"/></g><g transform="translate(84, 90)"><circle cx="82" cy="22" r="12" fill="#fff"/><circle cx="82" cy="22" r="6" fill="#000" fill-opacity=".7"/><path fill-rule="evenodd" clip-rule="evenodd" d="M16.16 25.447C18.007 21.648 22.164 19 26.998 19c4.816 0 8.961 2.63 10.817 6.407.552 1.122-.233 2.04-1.024 1.36-2.451-2.107-5.932-3.423-9.793-3.423-3.74 0-7.124 1.235-9.56 3.228-.891.728-1.818-.014-1.278-1.125z" fill="#000" fill-opacity=".6"/></g><g transform="translate(84, 82)"><path d="M15.611 15.184c4.24-5.768 6.878-5.483 13.313-.627l.67.507C34.422 18.726 36.708 20 40 20a2 2 0 100-4c-2.066 0-3.901-1.022-7.989-4.123l-.678-.514c-3.76-2.836-5.959-4.076-8.695-4.37-3.684-.399-7.058 1.48-10.25 5.822a2 2 0 103.223 2.37zm80.777 0c-4.24-5.768-6.877-5.483-13.312-.627l-.67.507C77.578 18.726 75.292 20 72 20a2 2 0 110-4c2.066 0 3.901-1.022 7.989-4.123l.678-.514c3.76-2.836 5.959-4.076 8.695-4.37 3.684-.399 7.058 1.48 10.25 5.822a2 2 0 11-3.224 2.37z" fill="#000" fill-opacity=".6"/></g><g transform="translate(7, 0)"><path fill-rule="evenodd" clip-rule="evenodd" d="M183.68 38.949c5.406-4.95 6.707-14.987 3.638-21.5-3.769-7.995-11.417-8.997-18.746-5.48-6.908 3.315-13.057 4.419-20.622 2.813-7.258-1.541-14.144-4.26-21.647-4.706-12.325-.733-24.3 3.839-32.7 13.053-1.603 1.758-2.894 3.768-4.115 5.805-.977 1.63-2.078 3.38-2.493 5.258-.198.894.17 3.098-.275 3.83-.48.79-2.296 1.515-3.069 2.102-1.567 1.188-2.924 2.53-4.18 4.047-2.666 3.222-4.133 6.587-5.368 10.572-4.102 13.245-4.45 28.998.854 42.004.707 1.734 2.898 5.352 4.186 1.638.255-.734-.334-3.194-.333-3.935.005-2.72 1.506-20.729 8.047-30.817 2.13-3.284 11.973-15.58 13.984-15.68 1.065 1.693 11.88 12.51 39.942 11.242 12.662-.572 22.4-6.26 24.738-8.727 1.028 5.533 12.992 13.816 14.815 17.224 5.267 9.846 6.435 30.304 8.445 30.265 2.01-.038 3.453-5.237 3.867-6.23 3.072-7.375 3.595-16.632 3.267-24.559-.427-10.202-4.638-21.226-12.235-28.22z" fill="#4A312C"/></g><g transform="translate(69, 85)"><path fill-rule="evenodd" clip-rule="evenodd" d="M39.25 9c-21.127 0-28.632 5.172-29.318 5.857A2.93 2.93 0 007 17.786v2.928a2.93 2.93 0 002.932 2.929s5.864 0 5.864 2.928c0 .19.012.337.035.447a62.957 62.957 0 00-.044 2.482c0 12.836 8.29 20.5 22.179 20.5h2.75c14.68 0 24.93-8.431 24.93-20.5 0-1.44-.036-2.875-.154-4.28l1.456-.727a7.739 7.739 0 011.877-.642c1.84-.386 3.922-.23 5.946.28.726.183 1.25.36 1.493.458l1.255.507c-.127 1.444-.164 2.921-.164 4.404 0 12.836 8.291 20.5 22.18 20.5h2.749c14.68 0 24.929-8.431 24.929-20.5 0-.83-.011-1.66-.044-2.483.023-.109.036-.256.036-.446 0-2.928 5.863-2.928 5.863-2.928A2.928 2.928 0 00136 20.714v-2.928a2.928 2.928 0 00-2.932-2.929C132.382 14.172 124.877 9 103.75 9h-2.932c-1.831 0-3.52.072-5.079.211-9.379.555-14.462 2.187-19.633 4.759a16.54 16.54 0 01-4.527.881c-2.361-.077-4.38-.778-4.774-.92l-.415-.21-.007-.004c-4.888-2.446-8.35-4.179-20.545-4.612A60.677 60.677 0 0042.182 9H39.25zm-1.117 5.863a192.746 192.746 0 017.599.09c14.05.845 14.05 6.956 14.05 14.547 0 8.622-7.84 14.643-19.066 14.643h-2.75C24.48 44.143 21.65 36.18 21.65 29.5c0-8.006 0-14.365 16.483-14.637zm26.11 4.353l.088.036-.063.031a49.3 49.3 0 00-.026-.067zm14.512.007l-.067.027.05.02.017-.047zm16.705-4.124c2.404-.16 5.134-.242 8.29-.242.378 0 .751.002 1.118.006 16.482.272 16.482 6.632 16.482 14.637 0 8.622-7.84 14.643-19.066 14.643h-2.75c-13.483 0-16.315-7.963-16.315-14.643 0-7.25 0-13.15 12.241-14.4z" fill="#000" fill-opacity=".1"/><path d="M40.716 45.071c13.747 0 21.997-7.869 21.997-17.571 0-9.705-1.284-17.571-20.531-17.571H39.25c-19.248 0-20.532 7.866-20.532 17.571 0 9.7 5.5 17.571 19.248 17.571h2.75z" fill="#000" fill-opacity=".7"/><path d="M40.716 45.071c13.747 0 21.997-7.869 21.997-17.571 0-9.705-1.284-17.571-20.531-17.571H39.25c-19.248 0-20.532 7.866-20.532 17.571 0 9.7 5.5 17.571 19.248 17.571h2.75z" fill="url(#Top/_Resources/Wayfarers__paint0_linear)" style="mix-blend-mode:screen"/><path d="M102.284 45.071c13.75 0 21.997-7.869 21.997-17.571 0-9.705-1.287-17.571-20.531-17.571h-2.932c-19.247 0-20.531 7.866-20.531 17.571 0 9.7 5.5 17.571 19.247 17.571h2.75z" fill="#000" fill-opacity=".7"/><path d="M102.284 45.071c13.75 0 21.997-7.869 21.997-17.571 0-9.705-1.287-17.571-20.531-17.571h-2.932c-19.247 0-20.531 7.866-20.531 17.571 0 9.7 5.5 17.571 19.247 17.571h2.75z" fill="url(#Top/_Resources/Wayfarers__paint1_linear)" style="mix-blend-mode:screen"/><path fill-rule="evenodd" clip-rule="evenodd" d="M39.25 7c-21.127 0-28.632 5.172-29.318 5.857A2.93 2.93 0 007 15.786v2.928a2.93 2.93 0 002.932 2.929s5.864 0 5.864 2.928c0 .19.012.337.035.447a62.957 62.957 0 00-.044 2.482c0 12.836 8.29 20.5 22.179 20.5h2.75c14.68 0 24.93-8.431 24.93-20.5 0-1.44-.036-2.875-.154-4.28l1.456-.727a7.739 7.739 0 011.877-.642c1.84-.386 3.922-.23 5.946.28.726.183 1.25.36 1.493.458l1.255.507c-.127 1.444-.164 2.921-.164 4.404 0 12.836 8.291 20.5 22.18 20.5h2.749c14.68 0 24.929-8.431 24.929-20.5 0-.83-.011-1.66-.044-2.483.023-.109.036-.256.036-.446 0-2.928 5.863-2.928 5.863-2.928A2.928 2.928 0 00136 18.714v-2.928a2.928 2.928 0 00-2.932-2.929C132.382 12.172 124.877 7 103.75 7h-2.932c-1.831 0-3.52.072-5.079.211-9.379.555-14.462 2.187-19.633 4.759a16.54 16.54 0 01-4.527.881c-2.361-.077-4.38-.778-4.774-.92l-.415-.21-.007-.004c-4.888-2.446-8.35-4.179-20.545-4.612A60.677 60.677 0 0042.182 7H39.25zm-1.117 5.863a192.746 192.746 0 017.599.09c14.05.845 14.05 6.956 14.05 14.547 0 8.622-7.84 14.643-19.066 14.643h-2.75C24.48 42.143 21.65 34.18 21.65 27.5c0-8.006 0-14.365 16.483-14.637zm26.11 4.353l.088.036-.063.031a49.3 49.3 0 00-.026-.067zm14.512.007l-.067.027.05.02.017-.047zm16.705-4.124c2.404-.16 5.134-.242 8.29-.242.378 0 .751.002 1.118.006 16.482.272 16.482 6.632 16.482 14.637 0 8.622-7.84 14.643-19.066 14.643h-2.75c-13.483 0-16.315-7.963-16.315-14.643 0-7.25 0-13.15 12.241-14.4z" fill="#3C4F5C"/><defs><linearGradient id="Top/_Resources/Wayfarers__paint0_linear" x1="80.287" y1="9.929" x2="80.287" y2="45.071" gradientUnits="userSpaceOnUse"><stop stop-color="#fff" stop-opacity=".5"/><stop offset=".705" stop-opacity=".5"/></linearGradient><linearGradient id="Top/_Resources/Wayfarers__paint1_linear" x1="80.287" y1="9.929" x2="80.287" y2="45.071" gradientUnits="userSpaceOnUse"><stop stop-color="#fff" stop-opacity=".5"/><stop offset=".705" stop-opacity=".5"/></linearGradient></defs></g></g></svg>